<?xml version="1.0" encoding="UTF-8"?>
<svg id="Layer_1" data-name="Layer 1" xmlns="http://www.w3.org/2000/svg" viewBox="0 0 160 160">
  <defs>
    <style>
      .cls-1 {
        fill: #000;
        stroke-width: 0px;
      }
    </style>0
  </defs>
  <path class="cls-1" d="M41.24,60.49c-1.77,2.02-3.58,4.08-5.38,6.15-.24.28-.53.29-.84.3-2.98.14-5.96.28-8.95.41-1.84.08-3.68.17-5.53.2-2.63.04-3.99,2.1-4.19,4.17-.47,4.93-.93,9.86-1.38,14.79-.09,1.01-.18,2.02-.19,3.03-.02,1.61.77,2.6,2.31,3.08,2.12.67,3.94.19,5.46-1.41,2.34-2.47,4.52-5.08,6.78-7.73h-8.57c.58-.65,1.14-1.29,1.72-1.93,1.36-1.5,2.74-2.98,4.09-4.49.29-.32.59-.45,1.01-.46,3.63-.1,7.27-.21,10.9-.34.65-.02.56.37.56.75.02,3.82.05,7.64.07,11.45,0,1.17.34,2.51-.12,3.45-.46.93-1.74,1.47-2.67,2.17-1.39,1.04-2.8,2.06-4.2,3.08-.16.12-.29.31-.52.28v-6.35c-.97,1.19-1.84,2.27-2.72,3.34-.64.78-1.29,1.56-1.96,2.31-1.34,1.5-3.01,2.49-5.01,2.65-2.54.21-5.09.21-7.55-.6-3.13-1.04-4.81-3.32-5.49-6.47-.45-2.12-.16-4.24-.08-6.36.15-3.97.41-7.93.54-11.9.1-3.1.47-6.09,2.37-8.69,1.96-2.68,4.62-4.22,7.87-4.41,5.13-.29,10.27-.35,15.4-.47,2.07-.05,4.15,0,6.26,0Z"/>
  <path class="cls-1" d="M81.18,83.76c.74-3.99,1.49-7.97,2.21-11.96.26-1.44.23-1.45,1.69-1.45,1.17,0,2.34.01,3.51,0,.4,0,.6.05.59.53-.02,6.05-.02,12.1,0,18.15,0,.46-.19.49-.55.48-.83-.02-1.66-.05-2.49,0-.58.04-.73-.12-.72-.71.03-3.97.02-7.95.02-11.92v-.78s-.07,0-.1-.01c-.43,2.15-.87,4.29-1.3,6.44-.43,2.15-.85,4.31-1.26,6.46-.07.36-.2.53-.61.52-.75-.03-1.51-.06-2.26,0-.53.05-.61-.24-.69-.61-.53-2.71-1.06-5.42-1.59-8.13-.32-1.61-.65-3.22-1.08-4.82v6.27c0,2.18-.03,4.36.02,6.54.01.64-.2.78-.78.74-.7-.05-1.4-.05-2.1,0-.51.04-.59-.15-.59-.61.02-5.97.02-11.94,0-17.92,0-.5.12-.66.64-.65,1.4.04,2.8.03,4.21,0,.51-.01.7.12.8.66.76,4.25,1.56,8.49,2.35,12.73.03.01.06.02.09.03Z"/>
  <path class="cls-1" d="M138.44,84.37c.14-1.04.29-2.08.42-3.12.43-3.47.85-6.94,1.26-10.41.04-.36.19-.5.54-.5,1.14,0,2.29.02,3.43,0,.38,0,.39.2.43.48.3,2.31.61,4.62.9,6.93.28,2.26.54,4.52.92,6.79.22-1.81.44-3.63.65-5.44.32-2.75.63-5.51.95-8.26.04-.33.18-.51.55-.5.78.02,1.56.04,2.34,0,.56-.04.59.24.54.65-.18,1.36-.36,2.72-.54,4.08-.39,3-.79,6.01-1.17,9.01-.22,1.67-.42,3.34-.62,5.01-.04.33-.2.42-.52.42-1.35-.01-2.7-.02-4.05,0-.35,0-.4-.13-.45-.44-.5-3.72-1.02-7.44-1.53-11.16-.02-.17.04-.38-.25-.49-.28,1.98-.56,3.95-.83,5.91-.27,1.92-.53,3.85-.77,5.77-.04.29-.1.4-.4.4-1.48-.01-2.96-.01-4.44,0-.33,0-.44-.12-.48-.44-.62-4.91-1.25-9.81-1.88-14.71-.15-1.16-.29-2.31-.46-3.46-.06-.41.06-.56.49-.55.93.03,1.87.02,2.8,0,.31,0,.44.06.48.41.4,3.55.82,7.1,1.24,10.65.12.98.24,1.95.36,2.93.04.01.09.02.13.03Z"/>
  <path class="cls-1" d="M114.74,79.74c1.85.61,2.4,2.03,2.47,3.71.05,1.3.02,2.6,0,3.89,0,.5,0,1,.18,1.46.23.59.11.74-.52.71-.88-.05-1.77-.04-2.65,0-.47.02-.68-.11-.79-.6-.22-1.06-.1-2.12-.15-3.18-.04-.98.08-1.97-.1-2.95-.14-.77-.59-1.21-1.31-1.34-.71-.14-1.55-.29-2.14.02-.43.23-.13,1.1-.14,1.68-.02,1.92-.02,3.84,0,5.76,0,.46-.08.64-.59.61-.93-.05-1.87-.03-2.8,0-.37,0-.54-.05-.54-.49.02-6.05,0-12.1.01-18.14,0-.24-.08-.54.35-.53,2.59.1,5.19-.25,7.76.27,2.12.43,3.08,1.47,3.35,3.6.13,1,.11,2.03-.11,3.02-.28,1.23-1.06,2.04-2.3,2.51ZM109.59,75.84c0,.73,0,1.45,0,2.18,0,.18-.09.41.2.52,1.71.68,3.41-.47,3.45-2.32.06-2.55-.16-3.19-3.12-3.09-.4.01-.56.1-.54.52.03.73,0,1.45,0,2.18Z"/>
  <path class="cls-1" d="M119.53,79.95c0-1.58.04-3.17,0-4.75-.1-3.04,1.66-4.64,4.42-5,1.51-.2,3.05-.19,4.52.4,1.8.73,2.78,2.06,2.8,3.99.04,3.43.02,6.86.01,10.28,0,2.56-1.18,4.04-3.68,4.67-1.6.4-3.2.35-4.77-.09-2.07-.58-3.24-2.12-3.28-4.28-.03-1.74,0-3.48,0-5.22h0ZM123.45,79.9c0,1.74,0,3.48,0,5.22,0,1.27.64,1.87,1.94,1.87,1.3,0,1.95-.61,1.95-1.87,0-3.45,0-6.9,0-10.35,0-1.29-.58-1.81-1.95-1.82-1.38,0-1.94.52-1.94,1.82,0,1.71,0,3.42,0,5.14Z"/>
  <path class="cls-1" d="M91.65,79.94c0-1.56,0-3.12,0-4.67,0-2.95,1.22-4.5,4.1-5.03,1.46-.27,2.95-.23,4.39.23,1.89.61,2.98,2.05,3.06,4.04q.08,2.07-1.98,2.07-1.7,0-1.72-1.67c-.03-1.74-1.53-2.61-3.09-1.79-.6.32-.8.87-.81,1.49-.02,3.53-.04,7.06,0,10.59,0,1.21.71,1.78,1.98,1.77,1.28,0,1.89-.57,1.92-1.82.02-1.04-.01-2.08.02-3.12.01-.43-.11-.57-.56-.57-1.37,0-1.37-.03-1.37-1.44s0-1.35,1.38-1.35c1.22,0,2.44.02,3.66-.01.48-.01.62.11.61.6-.03,1.9,0,3.79-.02,5.69-.02,2.51-1.15,3.95-3.58,4.57-1.59.4-3.19.36-4.76-.1-2.01-.58-3.16-2.13-3.2-4.27-.03-1.74,0-3.48,0-5.22h0Z"/>
  <path class="cls-1" d="M45.95,79.93c0-1.64,0-3.27,0-4.91.02-2.84,1.55-4.56,4.38-4.85,1.29-.13,2.59-.15,3.86.24,2.1.64,3.23,2.08,3.31,4.26.07,1.91.07,1.92-1.83,1.9-.61,0-1.42.27-1.78-.12-.3-.32-.11-1.13-.12-1.72-.02-1.27-.6-1.8-1.98-1.8-1.33,0-1.92.53-1.92,1.77,0,3.5,0,7.01,0,10.51,0,1.15.66,1.75,1.9,1.76,1.29.01,1.98-.58,1.99-1.75.02-1.06-.02-2.13.01-3.19.01-.43-.1-.57-.55-.57-1.36,0-1.36-.02-1.36-1.39s0-1.4,1.42-1.4c1.25,0,2.49,0,3.74,0,.21,0,.5-.11.49.29-.05,2.28.16,4.57-.1,6.85-.23,2.04-1.51,3.21-3.47,3.69-1.7.41-3.39.39-5.05-.18-1.84-.63-2.89-2.03-2.93-3.96-.04-1.82,0-3.63,0-5.45,0,0,0,0-.01,0Z"/>
  <path class="cls-1" d="M65.09,77.23c.78-2.09,1.57-4.14,2.3-6.2.2-.56.48-.74,1.06-.7.77.06,1.56.05,2.33,0,.65-.04.67.18.45.7-1.38,3.19-2.72,6.4-4.1,9.6-.2.46-.3.92-.3,1.42.01,2.26-.01,4.52.02,6.77,0,.55-.15.71-.69.68-.88-.04-1.77-.04-2.65,0-.51.03-.66-.13-.65-.65.03-2.02-.02-4.05.03-6.07.03-1.01-.19-1.93-.59-2.84-1.29-2.95-2.54-5.92-3.82-8.88-.21-.5-.28-.79.46-.74.9.06,1.82.06,2.72,0,.58-.04.82.2,1.01.7.66,1.84,1.35,3.67,2.04,5.51.09.23.1.52.38.7Z"/>
</svg>